HIERARCHY
ROOT joint_Root
{
	OFFSET 0.0 0.0 0.0
	CHANNELS 6 Xposition Yposition Zposition Zrotation Xrotation Yrotation 
	JOINT Hips
	{
		OFFSET -0.726466 93.3139 -2.00062
		CHANNELS 6 Xposition Yposition Zposition Zrotation Xrotation Yrotation 
		JOINT Spine
		{
			OFFSET 15.7357 0.0 0.0
			CHANNELS 6 Xposition Yposition Zposition Zrotation Xrotation Yrotation 
			JOINT Chest
			{
				OFFSET 8.98455 -0.406207 0.0
				CHANNELS 6 Xposition Yposition Zposition Zrotation Xrotation Yrotation 
				JOINT Neck
				{
					OFFSET 16.3773 0.0 0.0
					CHANNELS 6 Xposition Yposition Zposition Zrotation Xrotation Yrotation 
					JOINT Head
					{
						OFFSET 6.45672 0.0 0.0
						CHANNELS 6 Xposition Yposition Zposition Zrotation Xrotation Yrotation 
						End Site
						{
							OFFSET 0.0 0.0 0.0
						}
					}
				}
				JOINT Shoulder_L
				{
					OFFSET 12.9942 -0.242716 4.98039
					CHANNELS 6 Xposition Yposition Zposition Zrotation Xrotation Yrotation 
					JOINT UpperArm_L
					{
						OFFSET 5.34809 0.0 0.0
						CHANNELS 6 Xposition Yposition Zposition Zrotation Xrotation Yrotation 
						JOINT LowerArm_L
						{
							OFFSET 24.3286 1.87007e-05 0.0
							CHANNELS 6 Xposition Yposition Zposition Zrotation Xrotation Yrotation 
							JOINT Hand_L
							{
								OFFSET 22.2916 0.0 0.0
								CHANNELS 6 Xposition Yposition Zposition Zrotation Xrotation Yrotation 
								End Site
								{
									OFFSET 0.0 0.0 0.0
								}
							}
						}
					}
				}
				JOINT Shoulder_R
				{
					OFFSET 12.9945 -0.242716 -4.98039
					CHANNELS 6 Xposition Yposition Zposition Zrotation Xrotation Yrotation 
					JOINT UpperArm_R
					{
						OFFSET -5.34813 0.0 0.0
						CHANNELS 6 Xposition Yposition Zposition Zrotation Xrotation Yrotation 
						JOINT LowerArm_R
						{
							OFFSET -24.3289 0.000322201 0.0
							CHANNELS 6 Xposition Yposition Zposition Zrotation Xrotation Yrotation 
							JOINT Hand_R
							{
								OFFSET -22.2915 -0.000108084 0.0
								CHANNELS 6 Xposition Yposition Zposition Zrotation Xrotation Yrotation 
								End Site
								{
									OFFSET 0.0 0.0 0.0
								}
							}
						}
					}
				}
			}
		}
		JOINT UpperLeg_L
		{
			OFFSET -2.19248 -6.46944 0.0
			CHANNELS 6 Xposition Yposition Zposition Zrotation Xrotation Yrotation 
			JOINT LowerLeg_L
			{
				OFFSET 39.0811 0.0 -1.23785e-05
				CHANNELS 6 Xposition Yposition Zposition Zrotation Xrotation Yrotation 
				JOINT Foot_L
				{
					OFFSET 40.9854 0.0 -1.26872e-05
					CHANNELS 6 Xposition Yposition Zposition Zrotation Xrotation Yrotation 
					JOINT Toes_L
					{
						OFFSET 11.7543 0.0 0.0
						CHANNELS 6 Xposition Yposition Zposition Zrotation Xrotation Yrotation 
						End Site
						{
							OFFSET 0.0 0.0 0.0
						}
					}
				}
			}
		}
		JOINT UpperLeg_R
		{
			OFFSET -2.19251 6.46944 0.0
			CHANNELS 6 Xposition Yposition Zposition Zrotation Xrotation Yrotation 
			JOINT LowerLeg_R
			{
				OFFSET -39.0811 -0.00228153 -0.0401928
				CHANNELS 6 Xposition Yposition Zposition Zrotation Xrotation Yrotation 
				JOINT Foot_R
				{
					OFFSET -40.9854 0.0 0.0
					CHANNELS 6 Xposition Yposition Zposition Zrotation Xrotation Yrotation 
					JOINT Toes_R
					{
						OFFSET -11.7543 0.0 0.0
						CHANNELS 6 Xposition Yposition Zposition Zrotation Xrotation Yrotation 
						End Site
						{
							OFFSET 0.0 0.0 0.0
						}
					}
				}
			}
		}
	}
}
MOTION
Frames:	8
Frame Time:	0.0333333
0.000000 0.000000 0.000000 0.000000 0.000000 -0.000000 -0.825676 92.345600 -0.639827 88.032900 -0.434015 3.065590 15.735700 0.000005 -0.000001 89.709300 85.358800 -89.364800 8.984550 -0.406207 -0.000000 1.516490 -0.065859 0.689218 16.377300 -0.000001 -0.000001 4.886790 -2.938070 0.761250 6.456720 -0.000001 -0.000000 3.302660 -2.332300 1.229380 12.994200 -0.242716 4.980390 -89.993800 -0.019356 -72.143700 5.348090 -0.000007 -0.000001 -66.349000 40.051000 -14.866200 24.328600 0.000019 0.000005 2.173590 4.824190 -24.286100 22.291600 -0.000001 0.000005 3.655360 5.493410 -6.263710 12.994500 -0.242716 -4.980390 87.596400 6.855000 -70.624300 -5.348130 -0.000001 -0.000004 -65.143200 40.102300 -15.201400 -24.328900 0.000322 -0.000009 1.827790 5.140010 -19.616300 -22.291500 -0.000108 -0.000004 9.233040 5.328770 -0.749555 -2.192480 -6.469440 -0.000000 -175.559000 -6.242700 -3.571340 39.081100 -0.000007 -0.000012 -0.107376 0.257625 22.626100 40.985400 -0.000006 -0.000013 -0.326407 3.287100 -66.206000 11.754300 -0.000000 0.000003 -0.000036 -0.000429 -16.594300 -2.192510 6.469440 -0.000001 179.773000 13.695100 178.952000 -39.081100 -0.002282 -0.040193 -0.063929 0.194913 19.036300 -40.985400 0.000008 0.000006 2.243280 7.814720 -65.258300 -11.754300 -0.000006 -0.000006 -0.007271 -0.081977 -19.910600
0.000000 0.000000 0.000000 0.000000 0.000000 -0.000000 -0.827219 92.351500 -0.659014 88.034200 -0.494203 3.058470 15.735700 0.000005 -0.000001 89.901100 85.359000 -89.531400 8.984550 -0.406207 -0.000000 1.516140 -0.036167 0.739326 16.377300 -0.000001 -0.000001 4.844790 -3.009380 0.912771 6.456720 -0.000001 -0.000000 3.175810 -2.424990 1.559150 12.994200 -0.242716 4.980390 -90.041600 0.127473 -71.933500 5.348090 -0.000007 -0.000001 -65.557800 38.420100 -15.119400 24.328600 0.000019 0.000005 2.768480 5.530290 -26.643400 22.291600 -0.000001 0.000005 5.167660 5.512290 -7.033300 12.994500 -0.242716 -4.980390 87.591800 6.845160 -70.564400 -5.348130 -0.000001 -0.000004 -65.205800 39.979600 -15.124600 -24.328900 0.000322 -0.000009 1.810610 5.069660 -19.694400 -22.291500 -0.000108 -0.000004 9.243900 5.329520 -0.771592 -2.192480 -6.469440 -0.000000 -175.558000 -6.277620 -3.564950 39.081100 -0.000007 -0.000012 -0.107695 0.258861 22.589000 40.985400 -0.000006 -0.000013 -0.333562 3.269260 -66.178200 11.754300 -0.000000 0.000003 -0.000048 -0.000551 -16.599000 -2.192510 6.469440 -0.000001 179.784000 13.662400 178.944000 -39.081100 -0.002282 -0.040193 -0.062648 0.191442 19.014000 -40.985400 0.000008 0.000006 2.299660 7.834010 -65.245000 -11.754300 -0.000006 -0.000006 -0.006777 -0.077741 -19.737700
0.000000 0.000000 0.000000 0.000000 0.000000 -0.000000 -0.833063 92.350700 -0.686642 88.046200 -0.489678 3.075120 15.735700 0.000005 -0.000001 90.402500 85.344800 -90.013400 8.984550 -0.406207 -0.000000 1.544060 0.044249 0.776962 16.377300 -0.000001 -0.000001 4.835070 -3.097140 1.133730 6.456720 -0.000001 -0.000000 2.950260 -2.602580 2.024970 12.994200 -0.242716 4.980390 -90.126900 0.385466 -71.774000 5.348090 -0.000007 -0.000001 -63.896600 35.972600 -15.938200 24.328600 0.000019 0.000005 2.829320 4.862340 -30.245300 22.291600 -0.000001 0.000005 6.218770 5.522880 -7.486140 12.994500 -0.242716 -4.980390 87.575900 6.859480 -70.483300 -5.348130 -0.000001 -0.000004 -65.297800 39.787100 -14.998700 -24.328900 0.000322 -0.000009 1.822690 5.089600 -19.744100 -22.291500 -0.000108 -0.000004 9.254050 5.330810 -0.808925 -2.192480 -6.469440 -0.000000 -175.579000 -6.214440 -3.562770 39.081100 -0.000007 -0.000012 -0.105581 0.253717 22.594100 40.985400 -0.000006 -0.000013 -0.344966 3.209320 -66.170500 11.754300 -0.000000 0.000003 -0.000043 -0.000498 -16.596900 -2.192510 6.469440 -0.000001 179.767000 13.660000 178.923000 -39.081100 -0.002282 -0.040193 -0.064169 0.195622 19.035000 -40.985400 0.000008 0.000006 2.208020 7.842060 -65.213700 -11.754300 -0.000006 -0.000006 -0.007027 -0.079893 -19.825500
0.000000 0.000000 0.000000 0.000000 0.000000 -0.000000 -0.867831 92.357100 -0.729891 88.078800 -0.350948 3.143770 15.735700 0.000005 -0.000001 90.712700 85.320200 -90.316700 8.984550 -0.406207 -0.000000 1.592690 0.095031 0.790057 16.377300 -0.000001 -0.000001 4.887980 -3.194370 1.347210 6.456720 -0.000001 -0.000000 2.718930 -2.825890 2.682230 12.994200 -0.242716 4.980390 -90.175500 0.528070 -71.615800 5.348090 -0.000007 -0.000001 -61.664800 32.613900 -17.501100 24.328600 0.000019 0.000005 3.499770 5.024310 -34.925100 22.291600 -0.000001 0.000005 7.225670 5.525750 -7.603630 12.994500 -0.242716 -4.980390 87.566800 6.879180 -70.467100 -5.348130 -0.000001 -0.000004 -65.371600 39.678200 -14.828700 -24.328900 0.000322 -0.000009 1.827820 5.084790 -19.812600 -22.291500 -0.000108 -0.000004 9.184200 5.327040 -0.699322 -2.192480 -6.469440 -0.000000 -175.573000 -6.166250 -3.527990 39.081100 -0.000007 -0.000012 -0.107906 0.259865 22.550200 40.985400 -0.000006 -0.000013 -0.355698 3.307070 -66.098500 11.754300 -0.000000 0.000003 -0.000049 -0.000558 -16.599200 -2.192510 6.469440 -0.000001 179.757000 13.753900 178.974000 -39.081100 -0.002282 -0.040193 -0.062719 0.191347 19.041800 -40.985400 0.000008 0.000006 2.285770 7.784910 -65.217100 -11.754300 -0.000006 -0.000006 -0.007218 -0.081522 -19.892000
0.000000 0.000000 0.000000 0.000000 0.000000 -0.000000 -0.925665 92.352700 -0.796801 88.051200 -0.108027 3.182070 15.735700 0.000005 -0.000001 90.720400 85.318400 -90.293700 8.984550 -0.406207 -0.000000 1.596190 0.094700 0.851499 16.377300 -0.000001 -0.000001 4.944450 -3.259590 1.547730 6.456720 -0.000001 -0.000000 2.537290 -3.028510 3.494310 12.994200 -0.242716 4.980390 -90.171000 0.508993 -71.432100 5.348090 -0.000007 -0.000001 -59.200800 28.365500 -19.811000 24.328600 0.000019 0.000005 4.484610 5.339710 -40.116800 22.291600 -0.000001 0.000005 9.010720 5.539140 -8.201610 12.994500 -0.242716 -4.980390 87.549300 6.922450 -70.449800 -5.348130 -0.000001 -0.000004 -65.337200 39.692100 -14.753800 -24.328900 0.000322 -0.000009 1.847030 5.162500 -19.727400 -22.291500 -0.000108 -0.000004 9.133040 5.325660 -0.659182 -2.192480 -6.469440 -0.000000 -175.519000 -6.007990 -3.631480 39.081100 -0.000007 -0.000012 -0.107070 0.256535 22.654200 40.985400 -0.000006 -0.000013 -0.372343 3.377670 -66.074000 11.754300 -0.000000 0.000003 -0.000049 -0.000552 -16.599000 -2.192510 6.469440 -0.000001 179.827000 13.895300 178.959000 -39.081100 -0.002282 -0.040193 -0.062395 0.189890 19.089900 -40.985400 0.000008 0.000006 2.336540 7.638680 -65.223400 -11.754300 -0.000006 -0.000006 -0.007124 -0.080723 -19.859400
0.000000 0.000000 0.000000 0.000000 0.000000 -0.000000 -0.976828 92.350400 -0.851392 88.108300 0.163566 3.286760 15.735700 0.000005 -0.000001 90.672600 85.311400 -90.230800 8.984550 -0.406207 -0.000000 1.610260 0.086288 0.881679 16.377300 -0.000001 -0.000001 5.064040 -3.320790 1.766780 6.456720 -0.000001 -0.000000 2.361310 -3.163180 4.299230 12.994200 -0.242716 4.980390 -90.139400 0.413770 -71.379100 5.348090 -0.000007 -0.000001 -56.949200 23.057800 -22.607200 24.328600 0.000019 0.000005 5.854290 5.772100 -45.546000 22.291600 -0.000001 0.000005 11.388700 5.550400 -8.717100 12.994500 -0.242716 -4.980390 87.525300 6.975960 -70.411900 -5.348130 -0.000001 -0.000004 -65.256800 39.702800 -14.741100 -24.328900 0.000322 -0.000009 1.852140 5.242530 -19.499500 -22.291500 -0.000108 -0.000004 9.191570 5.327950 -0.725816 -2.192480 -6.469440 -0.000000 -175.528000 -5.867340 -3.613990 39.081100 -0.000007 -0.000012 -0.108082 0.258858 22.662400 40.985400 -0.000006 -0.000013 -0.384045 3.520230 -66.009000 11.754300 -0.000000 0.000003 -0.000041 -0.000475 -16.596000 -2.192510 6.469440 -0.000001 179.780000 14.071000 179.009000 -39.081100 -0.002282 -0.040193 -0.063088 0.190947 19.177600 -40.985400 0.000008 0.000006 2.384490 7.576440 -65.265900 -11.754300 -0.000006 -0.000006 -0.007233 -0.081648 -19.897200
0.000000 0.000000 0.000000 0.000000 0.000000 -0.000000 -1.035810 92.346400 -0.893076 88.094000 0.470053 3.434390 15.735700 0.000005 -0.000001 90.294700 85.298600 -89.803900 8.984550 -0.406207 -0.000000 1.636780 0.022087 0.980433 16.377300 -0.000001 -0.000001 5.163050 -3.359510 1.965350 6.456720 -0.000001 -0.000000 2.220350 -3.208080 5.106290 12.994200 -0.242716 4.980390 -90.041100 0.122235 -71.404200 5.348090 -0.000007 -0.000001 -55.427800 16.827500 -25.763500 24.328600 0.000019 0.000005 7.616250 6.247050 -50.856200 22.291600 -0.000001 0.000005 13.913500 5.560420 -9.203260 12.994500 -0.242716 -4.980390 87.496800 7.023200 -70.326300 -5.348130 -0.000001 -0.000004 -65.193100 39.531000 -14.750200 -24.328900 0.000322 -0.000009 1.838730 5.247560 -19.351800 -22.291500 -0.000108 -0.000004 9.227140 5.325900 -0.666265 -2.192480 -6.469440 -0.000000 -175.466000 -5.668490 -3.574150 39.081100 -0.000007 -0.000012 -0.109146 0.260544 22.729600 40.985400 -0.000006 -0.000013 -0.397390 3.645740 -65.986200 11.754300 -0.000000 0.000003 -0.000052 -0.000584 -16.600200 -2.192510 6.469440 -0.000001 179.797000 14.307000 179.143000 -39.081100 -0.002282 -0.040193 -0.062685 0.189617 19.193600 -40.985400 0.000008 0.000006 2.373800 7.476480 -65.265700 -11.754300 -0.000006 -0.000006 -0.006948 -0.079218 -19.798000
0.000000 0.000000 0.000000 0.000000 0.000000 -0.000000 -1.088510 92.341600 -0.934951 88.125700 0.680554 3.576480 15.735700 0.000005 -0.000001 89.878900 85.285900 -89.341900 8.984550 -0.406207 -0.000000 1.662600 -0.048516 1.073710 16.377300 -0.000001 -0.000001 5.221490 -3.375180 2.224070 6.456720 -0.000001 -0.000000 2.098500 -3.158360 5.784190 12.994200 -0.242716 4.980390 -89.966100 -0.101066 -71.470300 5.348090 -0.000007 -0.000001 -54.801200 9.623020 -29.253900 24.328600 0.000019 0.000005 9.793940 6.653600 -56.121200 22.291600 -0.000001 0.000005 15.771900 5.556550 -9.021930 12.994500 -0.242716 -4.980390 87.460200 7.093380 -70.241500 -5.348130 -0.000001 -0.000004 -65.076400 39.293400 -14.795800 -24.328900 0.000322 -0.000009 1.892190 5.420810 -19.285100 -22.291500 -0.000108 -0.000004 9.325180 5.326560 -0.685494 -2.192480 -6.469440 -0.000000 -175.450000 -5.578240 -3.507030 39.081100 -0.000007 -0.000012 -0.108791 0.259303 22.760700 40.985400 -0.000006 -0.000013 -0.400815 3.788360 -65.952800 11.754300 -0.000000 0.000003 -0.000042 -0.000490 -16.596600 -2.192510 6.469440 -0.000001 179.776000 14.417300 179.230000 -39.081100 -0.002282 -0.040193 -0.062407 0.187864 19.283900 -40.985400 0.000008 0.000006 2.442750 7.356560 -65.311800 -11.754300 -0.000006 -0.000006 -0.007135 -0.080816 -19.863200
